<svg width="346" height="102" viewBox="0 0 346 102" fill="none" xmlns="http://www.w3.org/2000/svg">
<rect width="346" height="102" fill="#D9FE51"/>
<path fill-rule="evenodd" clip-rule="evenodd" d="M93.9058 24V58.8073C93.9058 64.1723 98.1941 67.7593 102.55 67.7593C102.55 67.7593 104.124 67.7198 104.962 67.3901L109.454 76.714C109.454 76.714 104.35 78.9992 100.733 78.9992C89.7529 78.9992 82 70.5009 82 56.8068V24L93.9058 24ZM134.174 28.0922C149.028 28.0922 160.355 39.0334 160.355 53.6856C160.355 68.3349 149.4 79 134.174 79C119.038 79 108.086 68.3349 108.086 53.6856C108.086 38.9404 119.41 28.0922 134.174 28.0922ZM178.841 24.0006V29.2105H209.856V58.7797C209.856 64.1475 214.034 67.478 218.39 67.478C223.671 67.478 227.477 63.5924 227.477 58.4106V29.2105H239.86V55.838C239.86 69.0588 231.67 78.9715 218.198 78.9715C207.085 78.9715 197.953 70.4733 197.953 56.782V41.5747H178.841V58.8051C178.841 64.1729 182.633 67.7598 186.986 67.7598C186.986 67.7598 188.213 67.7204 189.051 67.3907L193.404 76.7145C193.404 76.7145 188.312 78.9997 184.695 78.9997C173.715 78.9997 165.984 70.4986 165.984 56.8073V24.0006H178.841ZM297.353 27.9291C308.463 27.9291 318.042 36.4273 318.042 50.1215V78.2176H305.185V48.1237C305.185 42.7531 301.01 39.4226 296.654 39.4226C291.372 39.4226 287.563 43.3082 287.563 48.49V78.2176H275.184V48.1237C275.184 42.7531 271.242 39.4226 266.889 39.4226C261.608 39.4226 258.039 43.3082 258.039 48.49V78.2176H245.656V51.0654C245.656 37.8446 253.985 27.9291 267.459 27.9291C273.02 27.9291 278.16 30.0593 281.856 33.9026C285.577 30.1579 290.972 27.9291 297.353 27.9291ZM134.174 39.4025C126.466 39.4025 120.897 45.3367 120.897 53.6856C120.897 61.9359 126.562 67.6868 134.174 67.6868C141.879 67.6868 147.544 61.9359 147.544 53.6856C147.544 45.4325 141.879 39.4025 134.174 39.4025Z" fill="black"/>
<circle cx="337" cy="8" r="5" fill="#393939"/>
<circle cx="337" cy="8" r="2" fill="#D9FE51"/>
<circle cx="13" cy="8" r="5" fill="#393939"/>
<circle cx="13" cy="8" r="2" fill="#D9FE51"/>
<circle cx="337" cy="94" r="5" fill="#393939"/>
<circle cx="337" cy="94" r="2" fill="#D9FE51"/>
<circle cx="13" cy="94" r="5" fill="#393939"/>
<circle cx="13" cy="94" r="2" fill="#D9FE51"/>
</svg>
